# xmcd
#
# Track frame offsets:
#	150
#	9500
#	19907
#	34086
#	48429
#	66152
#	78879
#	93041
#	105216
#	113159
#	127913
#	140281
#
# Disc length: 2071 seconds
#
# Revision: 0
# Processed by: cddbd v1.5.2PL0 Copyright (c) Steve Scherf et al.
# Submitted via: EasyCDDAExtractor 12.0.1.1
#
DISCID=8608150c
DTITLE=Moody Blues - Go Now - The Moody Blues #1
DYEAR=1965
DGENRE=Classic Rock
TTITLE0=I Go Crazy
TTITLE1=And My Babys Gone
TTITLE2=Go Now
TTITLE3=Its Easy Child
TTITLE4=Cant Nobody Love You
TTITLE5=I Had A Dream
TTITLE6=Let Me Go
TTITLE7=I Dont Want To Go On Without You
TTITLE8=True Story
TTITLE9=It Aint Necessarily So
TTITLE10=Bye Bye Bird
TTITLE11=From The Bottom Of My Heart
EXTD=
EXTT0=
EXTT1=
EXTT2=
EXTT3=
EXTT4=
EXTT5=
EXTT6=
EXTT7=
EXTT8=
EXTT9=
EXTT10=
EXTT11=
PLAYORDER=
